<svg xmlns="http://www.w3.org/2000/svg" width="48" height="48" viewBox="0 0 24 24" fill="none">
  <g transform="translate(3.5, 3) scale(0.65)">
    <path d="M4 16v-2.38C4 11.5 2.97 10.5 3 8c.03-2.72 1.49-6 4.5-6C9.37 2 10 3.8 10 5.5c0 3.11-2 5.66-2 8.68V16a2 2 0 1 1-4 0Z" fill="white" stroke="white" stroke-width="0.5"/>
    <path d="M20 20v-2.38c0-2.12 1.03-3.12 1-5.62-.03-2.72-1.49-6-4.5-6C14.63 6 14 7.8 14 9.5c0 3.11 2 5.66 2 8.68V20a2 2 0 1 0 4 0Z" fill="white" stroke="white" stroke-width="0.5"/>
    <path d="M16 17h4" stroke="white" stroke-width="2" stroke-linecap="round"/>
    <path d="M4 13h4" stroke="white" stroke-width="2" stroke-linecap="round"/>
  </g>
  <circle cx="12" cy="12" r="11" fill="none" stroke="#FC5200" stroke-width="1.8"/>
  <line x1="4" y1="20" x2="20" y2="4" stroke="#FC5200" stroke-width="1.8" stroke-linecap="round"/>
</svg>
